# xmcd
#
# Track frame offsets:
#	150
#	11606
#	24130
#	39538
#	54722
#	69653
#	88536
#	107713
#	125752
#	143183
#	163351
#	177753
#	194291
#	211091
#	232192
#	253708
#	267920
#	283933
#	296935
#	313479
#
# Disc length: 4394 seconds
#
# Revision: 0
# Processed by: cddbd v1.5.2PL0 Copyright (c) Steve Scherf et al.
# Submitted via: SynApp - FreeCDDB Version: 2.5
#
DISCID=3a112814
DTITLE=Various Artist - COUNTRY - SAMPLER 1
DYEAR=2007
DGENRE=Country
TTITLE0=BONNIE GUITAR - BONNIE GUITAR: COUNTRY LADY
TTITLE1=JUD STRUNK - JUD STRUNK: DAISY A DAY
TTITLE2=BROOKS and DUNN - BROOKS and DUNN: MY MARIA
TTITLE3=REBA MCENTIRE - REBA MCENTIRE: 'TIL I SAID IT TO YOU
TTITLE4=BROOKS and DUNN - BROOKS and DUNN: SHE'S NOT THE CHEATIN' KIND
TTITLE5=REBA MCENTIRE - REBA MCENTIRE: BACK BEFORE THE WAR
TTITLE6=BROOKS and DUNN - BROOKS and DUNN: NEON MOON
TTITLE7=REBA MCENTIRE - REBA MCENTIRE: NOBODY DIES FROM A BROKEN HEART
TTITLE8=BROOKS and DUNN - BROOKS and DUNN: SHE USED TO BE MINE
TTITLE9=REBA MCENTIRE - REBA MCENTIRE: I'LL BE
TTITLE10=BROOKS and DUNN - BROOKS and DUNN: HONKY TONK TRUTH
TTITLE11=REBA MCENTIRE - REBA MCENTIRE: WHEN YOU'RE NOT TRYING TO
TTITLE12=BROOKS and DUNN - BROOKS and DUNN: LOST AND FOUND
TTITLE13=REBA MCENTIRE - REBA MCENTIRE: ROSES
TTITLE14=BROOKS and DUNN - BROOKS and DUNN: YOU'RE GONNA MISS ME WHEN I'M GONE
TTITLE15=BROOKS and DUNN - BROOKS and DUNN: HE'S GOT YOU
TTITLE16=REBA MCENTIRE - REBA MCENTIRE: SHE WASN'T GOOD ENOUGH FOR HIM
TTITLE17=BROOKS and DUNN - BROOKS and DUNN: MY NEXT BROKEN HEART
TTITLE18=REBA MCENTIRE - REBA MCENTIRE: I'M NOT YOUR GIRL
TTITLE19=BROOKS and DUNN - BROOKS and DUNN: THAT AIN'T NO WAY TO GO
EXTD=
EXTT0=
EXTT1=
EXTT2=
EXTT3=
EXTT4=
EXTT5=
EXTT6=
EXTT7=
EXTT8=
EXTT9=
EXTT10=
EXTT11=
EXTT12=
EXTT13=
EXTT14=
EXTT15=
EXTT16=
EXTT17=
EXTT18=
EXTT19=
PLAYORDER=
